# xmcd
#
# Track frame offsets:
#	150
#	18163
#	34325
#	53104
#	71879
#	89769
#	106552
#	123860
#	139536
#	153425
#	171360
#	189107
#	206427
#	225510
#	241464
#	259562
#	274411
#	288537
#	304489
#	319959
#
# Disc length: 4510 seconds
#
# Revision: 0
# Processed by: cddbd v1.4PL0 Copyright (c) Steve Scherf et al.
# Submitted via: audiograbber 1.81.02
#
DISCID=1e119c14
DTITLE=Tijana Dapcevic - Negativ
DYEAR=1900
DGENRE=
TTITLE0=Marionete
TTITLE1=Ne idi
TTITLE2=Ledja na ledja
TTITLE3=Negativ
TTITLE4=Ja imam samo tebe
TTITLE5=Hladno je
TTITLE6=Prica o nama
TTITLE7=Aleluja
TTITLE8=Izgrev
TTITLE9=Jedno drugom sve smo rekli
TTITLE10=Imam samo tebe
TTITLE11=Jaca od sudbine
TTITLE12=Stepski vuk
TTITLE13=Kasno je
TTITLE14=Kao da
TTITLE15=Najde nacin
TTITLE16=Nema, nema
TTITLE17=Radim da budes moj
TTITLE18=Kineski zid
TTITLE19=Sosem slobodna
EXTD=
EXTT0=
EXTT1=
EXTT2=
EXTT3=
EXTT4=
EXTT5=
EXTT6=
EXTT7=
EXTT8=
EXTT9=
EXTT10=
EXTT11=
EXTT12=
EXTT13=
EXTT14=
EXTT15=
EXTT16=
EXTT17=
EXTT18=
EXTT19=
PLAYORDER=
